<?xml version="1.0" encoding="utf-8"?>
<!-- Generator: Adobe Illustrator 22.0.1, SVG Export Plug-In . SVG Version: 6.00 Build 0)  -->
<svg version="1.1" id="Rain" xmlns="http://www.w3.org/2000/svg" xmlns:xlink="http://www.w3.org/1999/xlink" x="0px" y="0px"
	 viewBox="0 0 512 512" style="enable-background:new 0 0 512 512;" xml:space="preserve">
<style type="text/css">
	.st0{fill:#ECEDED;}
	.st1{fill:#C6C7C8;}
	.st2{fill:#28B4FF;}
	.st3{fill:#3C64FF;}
</style>
<title>Icon_Rain</title>
<g>
	<path class="st0" d="M129.6,332.6c-33.1-0.7-59.5-28.1-58.8-61.2c0.7-33.1,28.1-59.5,61.2-58.8l0,0c0.5,0-0.8-9.4-0.8-14.4
		c0-26.5,21.5-48,48-48c9,0,17.8,2.5,25.4,7.3c8.3-43.4,50.2-71.8,93.6-63.5c29.2,5.6,52.9,26.9,61.5,55.4
		c50.4,6.2,86.3,52.1,80.1,102.5c-5.7,46.3-45.2,81-91.8,80.8L129.6,332.6z"/>
	<path class="st1" d="M417.2,186.3c-4.4-5.7-9.6-10.7-15.2-15.2l4.9-6.3c6.2,4.8,11.8,10.4,16.6,16.5L417.2,186.3z"/>
	<path class="st1" d="M431.6,193.5c-1.1-1.9-3.5-2.6-5.5-1.5s-2.6,3.5-1.5,5.5c23.9,42.3,8.9,96-33.5,119.9
		c-13.2,7.4-28.1,11.3-43.2,11.3H132c-30.9,0-56-25.1-56-56s25.1-56,56-56c14.8,0,29,5.9,39.5,16.3c1.6,1.6,4.1,1.6,5.7,0
		s1.6-4.1,0-5.7c-11-11.1-25.7-17.7-41.3-18.6c0-0.6-0.1-1.2-0.2-2c-0.3-2.8-0.6-6.3-0.6-8.6c0.1-24.3,19.8-43.9,44.1-43.9
		c8.2,0,16.2,2.3,23.2,6.7l5,3.1l1.1-5.7c7.9-41.2,47.7-68.2,88.9-60.4c27.7,5.3,50.3,25.6,58.4,52.6l0.8,2.5l2.6,0.3
		c10.9,1.4,21.5,4.8,31.1,10.2c1.9,1.1,4.3,0.5,5.5-1.4c1.1-1.9,0.5-4.3-1.4-5.5c-0.1-0.1-0.2-0.1-0.3-0.2
		c-9.8-5.4-20.4-9-31.5-10.7c-5.5-16-15.6-30.1-29.1-40.3c-37-27.9-89.7-20.5-117.6,16.5c-6.6,8.8-11.4,18.7-14.2,29.4
		c-25.8-12.5-56.9-1.8-69.5,24.1c-3.4,7.1-5.2,14.8-5.2,22.7c0,2.6,0.3,6.2,0.6,9.3c0,0.4,0.1,0.8,0.1,1.3
		c-35.3,2.3-62,32.7-59.8,67.9c2.2,33.7,30.1,59.9,63.9,59.9h216c53,0,96-43,96-96C444,224.2,439.8,207.9,431.6,193.5L431.6,193.5z"
		/>
	<path class="st2" d="M332.6,353.4c0,36.4-29.1,66-65,66s-65-29.5-65-66s65-107.4,65-107.4S332.6,316.9,332.6,353.4z"/>
	<path class="st3" d="M267.6,423.3c-38,0-69-31.4-69-70c0-37.6,63.4-107.1,66-110.1c1.5-1.6,4-1.7,5.7-0.2c0.1,0.1,0.2,0.2,0.2,0.2
		c0.1,0.1,8.4,9.1,18.9,22.2c1.5,1.6,1.3,4.2-0.3,5.6c-1.6,1.5-4.2,1.3-5.6-0.3c-0.1-0.1-0.2-0.2-0.3-0.3
		c-6.6-8.2-12.3-14.8-15.6-18.5c-12.6,14.3-61,71.2-61,101.4c0,34.2,27.4,62,61,62s61-27.8,61-62c0-12.5-8.8-32-25.6-56.3
		c-1.3-1.8-0.9-4.3,0.9-5.6c1.8-1.3,4.3-0.9,5.6,0.9c0,0.1,0.1,0.1,0.1,0.2c17.9,26,27,46.5,27,60.8
		C336.6,391.9,305.7,423.3,267.6,423.3z"/>
	<path class="st3" d="M296.5,287.9c-2-2.7-4-5.5-6.1-8.2l6.4-4.9c2.1,2.8,4.2,5.6,6.3,8.4L296.5,287.9z"/>
</g>
</svg>
